<?xml version="1.0" encoding="UTF-8"?>
<svg width="1200px" height="630px" viewBox="0 0 1200 630" version="1.1" xmlns="http://www.w3.org/2000/svg" xmlns:xlink="http://www.w3.org/1999/xlink">
    <!-- Generator: Sketch 50.2 (55047) - http://www.bohemiancoding.com/sketch -->
    <title>El Material definitivo para dominar igualdad de género</title>
    <desc>Created with Sketch.</desc>
    <defs></defs>
    <g id="El-Material-definitivo-para-dominar-igualdad-de-género" stroke="none" stroke-width="1" fill="none" fill-rule="evenodd">
        <g id="undraw_Scrum_board_re_wk7v" transform="translate(189.000000, 0.000000)" fill-rule="nonzero">
            <path d="M183.07614,59 L130.67624,59 C120.186765,59.0094939 111.685734,67.5105248 111.67624,78 L111.67624,134.81 C111.00632,134.77 110.33639,134.71 109.67624,134.63 C75.1952856,131.002295 49.1780109,101.667249 49.695,66.9998409 C50.2119891,32.3324329 77.0924367,3.78624157 111.666233,1.18833804 C146.240028,-1.40956549 177.084521,22.7991261 182.77633,57 C182.88624,57.65997 182.98634,58.33002 183.07614,59 Z" id="Shape" fill="#F2F2F2"></path>
            <path d="M801.67628,57 L130.67628,57 C119.083555,57.012676 109.688956,66.4072749 109.67628,78 L109.67628,432 C109.688956,443.592725 119.083555,452.987324 130.67628,453 L801.67628,453 C813.269005,452.987324 822.663604,443.592725 822.67628,432 L822.67628,78 C822.663604,66.4072749 813.269005,57.012676 801.67628,57 Z M820.67628,432 C820.666786,442.489475 812.165755,450.990506 801.67628,451 L130.67628,451 C120.186805,450.990506 111.685774,442.489475 111.67628,432 L111.67628,78 C111.685774,67.5105248 120.186805,59.0094939 130.67628,59 L801.67628,59 C812.165755,59.0094939 820.666786,67.5105248 820.67628,78 L820.67628,432 Z" id="Shape" fill="#3F3D56"></path>
            <path d="M768.67628,114.36963 L163.67628,114.36963 C163.123995,114.36963 162.67628,113.921915 162.67628,113.36963 C162.67628,112.817345 163.123995,112.36963 163.67628,112.36963 L768.67628,112.36963 C769.228565,112.36963 769.67628,112.817345 769.67628,113.36963 C769.67628,113.921915 769.228565,114.36963 768.67628,114.36963 Z" id="Shape" fill="#3F3D56"></path>
            <path d="M334.67628,410 C334.123995,410 333.67628,409.552285 333.67628,409 L333.67628,80 C333.67628,79.4477153 334.123995,79 334.67628,79 C335.228565,79 335.67628,79.4477153 335.67628,80 L335.67628,409 C335.676252,409.552273 335.228553,409.999972 334.67628,410 Z" id="Shape" fill="#3F3D56"></path>
            <path d="M485.67628,410 C485.123995,410 484.67628,409.552285 484.67628,409 L484.67628,80 C484.67628,79.4477153 485.123995,79 485.67628,79 C486.228565,79 486.67628,79.4477153 486.67628,80 L486.67628,409 C486.676252,409.552273 486.228553,409.999972 485.67628,410 Z" id="Shape" fill="#3F3D56"></path>
            <path d="M636.67628,410 C636.123995,410 635.67628,409.552285 635.67628,409 L635.67628,80 C635.67628,79.4477153 636.123995,79 636.67628,79 C637.228565,79 637.67628,79.4477153 637.67628,80 L637.67628,409 C637.676252,409.552273 637.228553,409.999972 636.67628,410 Z" id="Shape" fill="#3F3D56"></path>
            <path d="M237.59193,217.5874 L201.05193,217.5874 C198.567791,217.584644 196.554686,215.571539 196.55193,213.0874 L196.55193,169.96779 C196.554686,167.483651 198.567791,165.470546 201.05193,165.46779 L237.59193,165.46779 C240.076069,165.470546 242.089174,167.483651 242.09193,169.96779 L242.09193,213.08742 C242.089163,215.571551 240.076061,217.584644 237.59193,217.5874 Z" id="Shape" fill="#164A8B"></path>
            <path d="M289.59193,340.5874 L253.05193,340.5874 C250.567791,340.584644 248.554686,338.571539 248.55193,336.0874 L248.55193,292.96779 C248.554686,290.483651 250.567791,288.470546 253.05193,288.46779 L289.59193,288.46779 C292.076069,288.470546 294.089174,290.483651 294.09193,292.96779 L294.09193,336.08742 C294.089163,338.571551 292.076061,340.584644 289.59193,340.5874 Z" id="Shape" fill="#164A8B"></path>
            <path d="M407.59205,243.5874 L371.05205,243.5874 C368.567929,243.5846 366.55485,241.571521 366.55205,239.0874 L366.55205,195.96779 C366.55485,193.483669 368.567929,191.47059 371.05205,191.46779 L407.59205,191.46779 C410.076171,191.47059 412.08925,193.483669 412.09205,195.96779 L412.09205,239.08742 C412.089239,241.571533 410.076163,243.5846 407.59205,243.5874 Z" id="Shape" fill="#164A8B"></path>
            <path d="M560.59205,196.5874 L524.05205,196.5874 C521.567929,196.5846 519.55485,194.571521 519.55205,192.0874 L519.55205,148.96779 C519.55485,146.483669 521.567929,144.47059 524.05205,144.46779 L560.59205,144.46779 C563.076171,144.47059 565.08925,146.483669 565.09205,148.96779 L565.09205,192.08742 C565.089239,194.571533 563.076163,196.5846 560.59205,196.5874 Z" id="Shape" fill="#164A8B"></path>
            <path d="M701.59205,196.5874 L665.05205,196.5874 C662.567929,196.5846 660.55485,194.571521 660.55205,192.0874 L660.55205,148.96779 C660.55485,146.483669 662.567929,144.47059 665.05205,144.46779 L701.59205,144.46779 C704.076171,144.47059 706.08925,146.483669 706.09205,148.96779 L706.09205,192.08742 C706.089239,194.571533 704.076163,196.5846 701.59205,196.5874 Z" id="Shape" fill="#164A8B"></path>
            <path d="M766.59205,208.5874 L730.05205,208.5874 C727.567929,208.5846 725.55485,206.571521 725.55205,204.0874 L725.55205,160.96779 C725.55485,158.483669 727.567929,156.47059 730.05205,156.46779 L766.59205,156.46779 C769.076171,156.47059 771.08925,158.483669 771.09205,160.96779 L771.09205,204.08742 C771.089239,206.571533 769.076163,208.5846 766.59205,208.5874 Z" id="Shape" fill="#E6E6E6"></path>
            <path d="M737.59205,285.5874 L701.05205,285.5874 C698.567929,285.5846 696.55485,283.571521 696.55205,281.0874 L696.55205,237.96779 C696.55485,235.483669 698.567929,233.47059 701.05205,233.46779 L737.59205,233.46779 C740.076171,233.47059 742.08925,235.483669 742.09205,237.96779 L742.09205,281.08742 C742.089239,283.571533 740.076163,285.5846 737.59205,285.5874 Z" id="Shape" fill="#E6E6E6"></path>
            <path d="M613.59205,269.5874 L577.05205,269.5874 C574.567929,269.5846 572.55485,267.571521 572.55205,265.0874 L572.55205,221.96779 C572.55485,219.483669 574.567929,217.47059 577.05205,217.46779 L613.59205,217.46779 C616.076171,217.47059 618.08925,219.483669 618.09205,221.96779 L618.09205,265.08742 C618.089239,267.571533 616.076163,269.5846 613.59205,269.5874 Z" id="Shape" fill="#FF6584"></path>
            <path d="M542.59205,285.5874 L506.05205,285.5874 C503.567929,285.5846 501.55485,283.571521 501.55205,281.0874 L501.55205,237.96779 C501.55485,235.483669 503.567929,233.47059 506.05205,233.46779 L542.59205,233.46779 C545.076171,233.47059 547.08925,235.483669 547.09205,237.96779 L547.09205,281.08742 C547.089239,283.571533 545.076163,285.5846 542.59205,285.5874 Z" id="Shape" fill="#E6E6E6"></path>
            <path d="M389.59205,353.5874 L353.05205,353.5874 C350.567929,353.5846 348.55485,351.571521 348.55205,349.0874 L348.55205,305.96779 C348.55485,303.483669 350.567929,301.47059 353.05205,301.46779 L389.59205,301.46779 C392.076171,301.47059 394.08925,303.483669 394.09205,305.96779 L394.09205,349.08742 C394.089239,351.571533 392.076163,353.5846 389.59205,353.5874 Z" id="Shape" fill="#E6E6E6"></path>
            <path d="M204.59193,296.5874 L168.05193,296.5874 C165.567791,296.584644 163.554686,294.571539 163.55193,292.0874 L163.55193,248.96779 C163.554686,246.483651 165.567791,244.470546 168.05193,244.46779 L204.59193,244.46779 C207.076069,244.470546 209.089174,246.483651 209.09193,248.96779 L209.09193,292.08742 C209.089163,294.571551 207.076061,296.584644 204.59193,296.5874 Z" id="Shape" fill="#FF6584"></path>
            <path d="M307.59193,217.5874 L271.05193,217.5874 C268.567791,217.584644 266.554686,215.571539 266.55193,213.0874 L266.55193,169.96779 C266.554686,167.483651 268.567791,165.470546 271.05193,165.46779 L307.59193,165.46779 C310.076069,165.470546 312.089174,167.483651 312.09193,169.96779 L312.09193,213.08742 C312.089163,215.571551 310.076061,217.584644 307.59193,217.5874 Z" id="Shape" fill="#E6E6E6"></path>
            <path d="M277.67628,98 L220.67628,98 C218.467141,98 216.67628,96.209139 216.67628,94 C216.67628,91.790861 218.467141,90 220.67628,90 L277.67628,90 C279.885419,90 281.67628,91.790861 281.67628,94 C281.67628,96.209139 279.885419,98 277.67628,98 Z" id="Shape" fill="#CCCCCC"></path>
            <path d="M438.67628,98 L381.67628,98 C379.467141,98 377.67628,96.209139 377.67628,94 C377.67628,91.790861 379.467141,90 381.67628,90 L438.67628,90 C440.885419,90 442.67628,91.790861 442.67628,94 C442.67628,96.209139 440.885419,98 438.67628,98 Z" id="Shape" fill="#CCCCCC"></path>
            <path d="M589.67628,98 L532.67628,98 C530.467141,98 528.67628,96.209139 528.67628,94 C528.67628,91.790861 530.467141,90 532.67628,90 L589.67628,90 C591.885419,90 593.67628,91.790861 593.67628,94 C593.67628,96.209139 591.885419,98 589.67628,98 Z" id="Shape" fill="#CCCCCC"></path>
            <path d="M730.67628,98 L673.67628,98 C671.467141,98 669.67628,96.209139 669.67628,94 C669.67628,91.790861 671.467141,90 673.67628,90 L730.67628,90 C732.885419,90 734.67628,91.790861 734.67628,94 C734.67628,96.209139 732.885419,98 730.67628,98 Z" id="Shape" fill="#CCCCCC"></path>
            <path d="M150.00921,390.89135 C147.047427,390.601288 144.366246,389.014236 142.68712,386.55724 C141.007994,384.100243 140.50341,381.025692 141.30914,378.16089 L115.67628,354.29979 L129.22905,350.86165 L154.43478,371.30547 C159.263759,373.015584 162.05049,378.067224 160.92141,383.064093 C159.79233,388.060963 155.104323,391.42363 150.00921,390.89132 L150.00921,390.89135 Z" id="Shape" fill="#FFB8B8"></path>
            <polygon id="Shape" fill="#FFB8B8" points="185.404 567.253 197.664 567.253 203.496 519.965 185.402 519.965"></polygon>
            <path d="M182.776988,563.749584 L221.307728,563.749584 L221.307728,578.636454 L197.663848,578.636454 C189.442062,578.636454 182.776988,571.97138 182.776988,563.749584 Z" id="Shape" fill="#2F2E41" transform="translate(202.042358, 571.193019) rotate(179.997380) translate(-202.042358, -571.193019) "></path>
            <polygon id="Shape" fill="#FFB8B8" points="101.345 558.401 113.193 561.555 130.994 517.359 113.509 512.705"></polygon>
            <path d="M97.1451779,559.047623 L135.675801,559.047623 L135.675801,573.934452 L112.031997,573.934452 C103.810234,573.934452 97.1451779,567.269396 97.1451779,559.047623 Z" id="Shape" fill="#2F2E41" transform="translate(116.410489, 566.491037) rotate(-165.094787) translate(-116.410489, -566.491037) "></path>
            <path d="M200.96095,558.29979 L182.25367,558.29979 C179.804393,558.308319 177.753783,556.445616 177.5276,554.00679 L166.17114,436.07519 C165.999495,434.291142 164.588698,432.878343 162.804895,432.704169 C161.021092,432.529994 159.36365,433.643202 158.85014,435.36035 L125.87672,545.55957 C125.152144,547.993089 122.639353,549.424097 120.17672,548.80566 L102.77364,544.4541 C101.546826,544.147548 100.493005,543.364225 99.8458605,542.277831 C99.1987164,541.191437 99.0117317,539.891755 99.32637,538.66699 C99.61055,537.55664 127.73702,427.63867 127.98262,426.50879 C134.35543,379.54101 141.97969,366.95508 146.07562,360.19434 C146.41473,359.63476 146.72626,359.12012 147.00677,358.63379 C147.35785,358.02539 149.51922,351.98926 150.89032,348.06934 C151.250351,346.780205 152.133337,345.700508 153.32538,345.0918 C170.53607,336.29004 190.67279,342.3828 196.43451,344.45996 C197.389707,344.796323 198.210102,345.433314 198.77264,346.27539 C216.05731,372.34668 207.57489,523.7666 205.69891,553.85639 C205.536706,556.354379 203.464199,558.298038 200.96095,558.29979 Z" id="Shape" fill="#2F2E41"></path>
            <circle id="Oval" fill="#FFB8B8" cx="152.68415" cy="235.02423" r="24.56103"></circle>
            <path d="M150.08179,352.83789 L149.90528,352.66699 C149.57423,352.34668 116.84962,320.28711 121.08472,290.64258 C122.896,277.96289 133.15504,269.86133 150.75245,267.21191 C164.118438,265.226872 176.908171,273.378729 180.75221,286.33301 L198.15211,345.81738 L150.08179,352.83789 Z" id="Shape" fill="#CCCCCC"></path>
            <path d="M133.33277,375.64062 L110.01441,352.46973 C106.771866,349.229266 105.453055,344.532869 106.53468,340.07812 L117.82325,294.15918 C118.506714,291.377928 120.311647,289.003996 122.808913,287.601804 C125.30618,286.199611 128.272692,285.894419 131.00314,286.75879 C136.356008,288.484165 139.370878,294.148963 137.81222,299.55273 L125.92774,339.94922 L145.146,360.58594 L133.33277,375.64062 Z" id="Shape" fill="#CCCCCC"></path>
            <path d="M258.40433,296.56242 C257.156219,299.263997 254.775579,301.273981 251.902997,302.051522 C249.030414,302.829063 245.960968,302.29429 243.52059,300.5911 L212.39114,316.72557 L213.76703,303.01979 L241.36396,285.94093 C244.567273,281.943153 250.254427,280.973076 254.601877,283.682893 C258.949326,286.39271 260.582919,291.925896 258.40437,296.56242 L258.40433,296.56242 Z" id="Shape" fill="#FFB8B8"></path>
            <path d="M240.12114,306.76461 L209.77489,319.87816 C205.667202,321.639325 200.938557,321.132063 197.29789,318.5397 L158.70896,290.89064 C156.381031,289.222551 154.847889,286.664843 154.473964,283.825485 C154.100039,280.986127 154.918725,278.118699 156.73542,275.90479 C160.326083,271.575564 166.7062,270.881256 171.14403,274.33679 L204.23248,300.37879 L230.5327,290.20362 L240.12114,306.76461 Z" id="Shape" fill="#CCCCCC"></path>
            <path d="M156.75592,242.89453 C159.78592,239.09811 165.44674,238.89402 169.60877,236.38975 C175.06058,233.10942 177.31451,225.77898 175.55765,219.66375 C173.80079,213.54852 168.61957,208.78275 162.67925,206.50346 C156.73893,204.22417 150.12985,204.19598 143.86336,205.29778 C134.53315,206.93826 125.34724,211.2929 119.65681,218.86673 C113.96638,226.44056 112.51823,237.53256 117.67532,245.47916 C120.04558,249.13152 123.70453,252.1463 124.65081,256.39628 C125.89311,261.97582 121.97941,267.35711 117.7866,271.24228 C113.00987,275.66856 107.5296,279.37568 103.34468,284.36522 C99.15976,289.35476 96.36904,296.17143 98.27868,302.39737 C99.87868,307.61372 104.53459,311.45685 109.64011,313.38145 C114.74563,315.30605 120.30618,315.58415 125.76135,315.69084 C131.05853,315.79445 136.68498,315.66562 141.14735,312.80943 C145.9245,309.75179 148.47516,303.95113 148.66361,298.28238 C148.85206,292.61363 146.95774,287.05986 144.41897,281.98788 C142.90574,278.96474 141.1463,276.03532 140.14079,272.80761 C139.13528,269.5799 138.96109,265.91745 140.57137,262.94487 C142.26404,259.82022 145.68847,257.93587 149.17547,257.25068 C149.35664,257.21508 149.54833,257.18329 149.74882,257.15498 C151.753701,256.89491 153.564829,255.825734 154.761154,254.196013 C155.957478,252.566291 156.434781,250.517999 156.0821,248.52732 C155.68484,246.31298 155.71914,244.19348 156.75592,242.89453 Z" id="Shape" fill="#2F2E41"></path>
            <polygon id="Shape" fill="#A0616A" points="484.229 568.3 471.969 568.3 466.137 521.012 484.231 521.013"></polygon>
            <path d="M463.212,564.79684 L486.85586,564.79684 L486.85586,579.68371 L448.32509,579.68371 C448.32509,575.73546 449.893529,571.94892 452.685367,569.157089 C455.477206,566.365258 459.26375,564.796829 463.212,564.79684 Z" id="Shape" fill="#2F2E41"></path>
            <polygon id="Shape" fill="#A0616A" points="573.184 554.413 562.033 559.506 537.079 518.917 553.538 511.399"></polygon>
            <path d="M555.308483,557.466408 L578.952363,557.466408 L578.952363,572.353278 L540.421633,572.353278 C540.421627,568.405036 541.990056,564.618503 544.781883,561.826672 C547.573709,559.034842 551.360241,557.466408 555.308483,557.466408 Z" id="Shape" fill="#2F2E41" transform="translate(559.686998, 564.909843) rotate(-24.548550) translate(-559.686998, -564.909843) "></path>
            <path d="M537.48152,408.85699 C539.859335,407.067499 541.322391,404.316696 541.477008,401.344764 C541.631625,398.372833 540.461921,395.485057 538.28264,393.45848 L552.69424,360.75856 L534.3856,363.86137 L523.50702,394.43808 C520.274216,398.412045 520.524615,404.175904 524.089872,407.854541 C527.655128,411.533178 533.408327,411.963841 537.48152,408.85699 Z" id="Shape" fill="#A0616A"></path>
            <path d="M483.44754,555.83137 L471.73562,555.83137 C469.380064,555.823267 467.426218,554.006309 467.24734,551.65754 L460.86034,381.09894 C460.764177,379.775968 461.25663,378.477966 462.206134,377.551713 C463.155639,376.62546 464.465448,376.165333 465.78563,376.29426 L533.5205,383.48762 C535.792908,383.709905 537.538941,385.598337 537.58275,387.88117 L539.00218,463.11652 C539.009748,463.524924 539.088911,463.928834 539.23607,464.30988 L567.02123,536.36262 C567.45491,537.487024 567.419344,538.738414 566.9225,539.83637 C566.425656,540.934326 565.509078,541.787044 564.37816,542.20344 L552.50975,546.57644 C550.376605,547.361877 547.992623,546.433546 546.95238,544.41238 L512.81981,478.04324 C512.633853,477.682477 512.497839,477.298092 512.41551,476.90066 L506.5847,448.80691 C506.235445,447.124303 504.716281,445.944174 502.999567,446.021879 C501.282853,446.099584 499.876517,447.412131 499.6807,449.11941 L487.91848,551.84308 C487.658809,554.115812 485.735058,555.831889 483.44754,555.83137 Z" id="Shape" fill="#2F2E41"></path>
            <circle id="Oval" fill="#A0616A" cx="489.27943" cy="223.17782" r="24.56103"></circle>
            <path d="M506.12305,396.69434 C489.467192,396.510791 473.208335,391.585817 459.25025,382.49609 L459.01125,382.33109 L459.03591,382.04154 L468.43091,272.62554 C469.100528,264.949228 475.333763,258.945419 483.02978,258.56401 C495.20578,258.00444 511.56078,258.71001 520.31567,265.23052 C533.54638,275.08501 539.92334,289.92437 537.81128,305.94292 C533.43115,339.16167 538.39306,383.97222 538.97314,388.97222 L539.01514,389.33257 L538.68555,389.48394 C528.485712,394.229234 517.372695,396.690019 506.12305,396.69434 Z" id="Shape" fill="#164A8B"></path>
            <path d="M538.85987,389.15771 C537.460193,389.155241 536.125446,388.567017 535.17921,387.53564 L529.80665,381.67432 C528.62612,380.378762 528.205822,378.561756 528.69752,376.87939 L540.94825,335.41553 L522.30836,296.27197 C521.437903,294.439659 521.224707,292.363559 521.7046,290.39258 C522.570474,286.850892 525.528708,284.208626 529.145313,283.746608 C532.761917,283.28459 536.2894,285.098312 538.01783,288.30858 L563.31251,329.35058 C565.398971,332.731598 565.668811,336.928445 564.03251,340.54882 L543.42265,386.21382 C542.732905,387.747283 541.316926,388.829986 539.65629,389.0937 C539.392922,389.136022 539.126617,389.157425 538.85987,389.15771 Z" id="Shape" fill="#164A8B"></path>
            <path d="M365.73779,309.95257 C368.125656,311.728631 371.177564,312.355793 374.072304,311.665297 C376.967043,310.974802 379.407257,309.03758 380.73633,306.3749 L416.17433,310.97102 L408.03014,294.28255 L375.62614,292.47655 C370.90132,290.496922 365.44257,292.363995 362.919817,296.822534 C360.397063,301.281073 361.607685,306.921845 365.73778,309.95255 L365.73779,309.95257 Z" id="Shape" fill="#A0616A"></path>
            <path d="M443.84937,319.06689 C443.232265,319.066857 442.615897,319.024276 442.00465,318.93945 L386.25365,311.20703 C384.402845,310.952797 382.804743,309.783063 382.00292,308.0957 C381.875405,307.828088 381.769121,307.550868 381.68505,307.2666 L381.6848,307.2666 C381.248771,305.773939 381.45728,304.16692 382.2598,302.83496 L386.87333,295.18603 C387.882696,293.523585 389.684323,292.506068 391.62919,292.50003 L391.63676,292.50003 L440.2327,292.55569 L476.52665,260.0386 C478.215223,258.52928 480.371588,257.646736 482.63383,257.53909 C486.699847,257.350717 490.461766,259.68652 492.096192,263.414339 C493.730617,267.142158 492.899782,271.491608 490.00639,274.35452 L453.79127,314.63279 C451.256728,317.454735 447.642426,319.066719 443.84937,319.06689 Z" id="Shape" fill="#164A8B"></path>
            <path d="M492.07164,245.02798 C494.31614,239.83341 496.21543,232.91545 491.91041,229.24284 C489.41329,227.11255 485.81656,227.10815 482.54495,226.84312 C473.32763,226.09644 463.83942,221.85541 459.33418,213.77956 C454.82894,205.70371 457.34495,193.69514 465.84441,190.05156 C471.57364,187.59556 478.14184,189.26865 484.13884,190.96923 L502.14464,196.07516 C507.4947,197.59228 513.11201,199.26541 516.96364,203.27665 C523.10632,209.67394 522.64714,220.48831 517.76823,227.89465 C512.88932,235.30099 505.54188,243.02544 497.13056,245.83746 L492.07164,245.02798 Z" id="Shape" fill="#2F2E41"></path>
            <path d="M740.4847,580.00958 L2.1907,580.00958 C1.76448726,580.010815 1.3701209,579.784142 1.15665717,579.415236 C0.943193433,579.046329 0.943193433,578.591461 1.15665717,578.222554 C1.3701209,577.853648 1.76448726,577.626975 2.1907,577.62821 L740.4847,577.62821 C740.910913,577.626975 741.305279,577.853648 741.518743,578.222554 C741.732207,578.591461 741.732207,579.046329 741.518743,579.415236 C741.305279,579.784142 740.910913,580.010815 740.4847,580.00958 Z" id="Shape" fill="#3F3D56"></path>
        </g>
    </g>
</svg>